<svg width="15" height="15" viewBox="0 0 15 15" fill="none" xmlns="http://www.w3.org/2000/svg">
<path fill-rule="evenodd" clip-rule="evenodd" d="M3.18334 6.66318C5 4.1331 5.64455 3.41196 5.53699 1.94739C5.42942 0.482818 5.73712 0.0801121 6.4691 0.00799778C7.20108 -0.0641166 8.57547 0.313471 8.81675 2.71067C8.92089 3.74782 8.13791 5.7897 8.13791 5.7897L13.6166 5.79254C14.3923 5.79254 15 6.10652 15 7.10721C15 8.0447 13.9042 8.32667 13.9042 8.32667C14.3387 8.51169 14.6146 8.92392 14.6053 9.37435C14.6079 10.0099 14.0673 10.5282 13.395 10.5347C13.8549 10.7094 14.1176 11.1692 14.0199 11.6285C13.9365 12.179 13.4858 12.6152 12.9056 12.707C13.2856 12.9611 13.4427 13.4217 13.2913 13.8377C13.0453 14.3871 12.3961 14.9928 10.9377 14.9928H4.12488C3.71942 15.0413 3.32598 14.8416 3.14477 14.4953V6.96946C3.14195 6.86614 3.15494 6.76298 3.18334 6.66318ZM0 6.17945H2.66521V14.9912H0V6.17945Z" fill="white"/>
</svg>
