<svg width="16" height="15" viewBox="0 0 16 15" fill="none" xmlns="http://www.w3.org/2000/svg">
<path fill-rule="evenodd" clip-rule="evenodd" d="M12.5774 8.33682C10.7607 10.8669 10.1162 11.588 10.2238 13.0526C10.3313 14.5172 10.0236 14.9199 9.29164 14.992C8.55966 15.0641 7.18527 14.6865 6.94399 12.2893C6.83985 11.2522 7.62283 9.2103 7.62283 9.2103L2.14413 9.20746C1.36843 9.20746 0.760737 8.89348 0.760737 7.89279C0.760737 6.9553 1.85656 6.67333 1.85656 6.67333C1.42204 6.48831 1.14617 6.07608 1.15544 5.62565C1.15281 4.99011 1.69344 4.47179 2.36569 4.46533C1.90584 4.29064 1.64316 3.83078 1.74085 3.37146C1.82424 2.82096 2.2749 2.38477 2.85511 2.29299C2.47517 2.03888 2.31807 1.57832 2.4694 1.16225C2.7154 0.612888 3.36466 0.00720882 4.82305 0.00720882L11.6359 0.00720882C12.0413 -0.0413036 12.4348 0.158409 12.616 0.504717L12.616 8.03054C12.6188 8.13386 12.6058 8.23702 12.5774 8.33682ZM15.7607 8.82055H13.0955L13.0955 0.00882816H15.7607L15.7607 8.82055Z" fill="white"/>
</svg>
